<svg width="600" height="140" viewBox="0 0 600 140" fill="none" xmlns="http://www.w3.org/2000/svg">
<path fill-rule="evenodd" clip-rule="evenodd" d="M552.216 76.4649V122.338C552.216 127.088 549.668 129.346 544.571 129.115C540.284 128.999 538.141 126.914 538.141 122.859V76.9862L544.744 69.6882L552.216 76.4649ZM552.216 62.7377L544.744 69.6882L538.141 63.259V19.471C538.141 17.5017 538.663 15.9378 539.705 14.7794C540.748 13.5052 542.427 12.868 544.744 12.868C549.725 12.868 552.216 14.8953 552.216 18.9497V62.7377Z" fill="white"/>
<path d="M593.919 62.7377H552.216L544.744 69.6882L552.216 76.4649H593.919C597.973 76.4649 600.001 74.206 600.001 69.6882C600.001 67.6031 599.479 65.9234 598.437 64.6491C597.394 63.3749 595.888 62.7377 593.919 62.7377Z" fill="#005C8F"/>
<path d="M495.743 76.4649L538.141 76.9862L544.744 69.6882L538.141 63.259L495.743 62.7377C493.658 62.7377 492.152 63.3749 491.226 64.6491C490.299 65.9234 489.893 67.6031 490.009 69.6882C490.241 74.206 492.152 76.4649 495.743 76.4649Z" fill="#99592A"/>
<path d="M428.789 49.7056V112.955C428.789 115.967 429.426 118.284 430.7 119.905C431.974 121.527 434.696 122.338 438.867 122.338H443.385C447.902 122.338 450.045 125.002 449.814 130.331C449.814 135.776 447.671 138.498 443.385 138.498H437.65C433.944 138.498 430.468 138.035 427.225 137.108C423.981 136.065 420.853 134.617 417.842 132.764V132.938C412.165 129.231 409.327 122.628 409.327 113.129V49.7056H402.55C398.38 49.7056 396.179 46.9833 395.948 41.5388C395.948 36.0943 398.148 33.372 402.55 33.372H409.327V14.7795C409.327 9.21909 412.629 6.4389 419.232 6.4389C425.603 6.4389 428.789 9.21909 428.789 14.7795V33.372H443.211C447.729 33.372 449.872 36.0943 449.64 41.5388C449.64 46.9833 447.497 49.7056 443.211 49.7056H428.789Z" fill="white"/>
<path d="M319.084 130.679C319.084 136.239 315.898 139.019 309.527 139.019C303.155 139.019 299.97 136.239 299.97 130.679V60.8264C299.97 56.0769 300.723 51.9646 302.229 48.4893C303.735 45.0141 306.109 42.176 309.353 39.975C315.492 35.573 321.632 33.372 327.772 33.372H355.747C361.655 33.372 367.795 35.573 374.166 39.975C380.422 44.3769 383.549 51.3274 383.549 60.8264V130.679C383.549 136.239 380.364 139.019 373.992 139.019C367.621 139.019 364.435 136.239 364.435 130.679V62.3903C364.435 59.3784 363.509 56.4824 361.655 53.7022L361.829 53.8759C360.323 51.0957 357.253 49.7056 352.62 49.7056H330.899C326.15 49.7056 323.022 51.0957 321.516 53.8759C319.894 56.3086 319.084 59.1467 319.084 62.3903V130.679Z" fill="white"/>
<path d="M213.367 110.175C213.367 112.955 214.236 115.561 215.974 117.994C217.827 120.427 220.897 121.643 225.183 121.643H246.903C251.19 121.643 254.201 120.6 255.939 118.515C257.792 116.314 258.719 113.824 258.719 111.044V109.132C258.719 103.688 261.905 100.965 268.276 100.965C274.647 100.965 277.833 103.688 277.833 109.132V111.217C277.833 116.083 277.022 120.079 275.4 123.207C273.894 126.335 271.578 129.057 268.45 131.374C262.31 135.776 256.171 137.977 250.031 137.977H220.839C214.7 137.977 208.734 135.776 202.942 131.374C200.161 129.057 198.018 126.161 196.512 122.686C195.007 119.095 194.254 114.982 194.254 110.348V60.8264C194.254 51.4432 197.15 44.4928 202.942 39.975C205.838 37.8898 208.792 36.268 211.803 35.1096C214.931 33.8354 217.943 33.1982 220.839 33.1982H250.031C252.811 33.1982 255.881 33.7774 259.24 34.9359C262.6 35.9784 265.728 37.4264 268.624 39.2799C271.404 41.2492 273.605 43.9715 275.227 47.4467C276.964 50.9219 277.833 55.0343 277.833 59.7838V83.2416C277.833 85.906 277.022 88.2807 275.4 90.3659C273.894 92.451 271.056 93.4936 266.886 93.4936H229.353C225.183 93.4936 222.982 90.7713 222.75 85.3268C222.75 79.8823 224.951 77.16 229.353 77.16H258.893L258.719 61.0001C258.719 58.1041 257.792 55.4977 255.939 53.1809C254.201 50.7482 251.19 49.5319 246.903 49.5319H225.183C220.897 49.5319 217.827 50.7482 215.974 53.1809C214.236 55.4977 213.367 58.1041 213.367 61.0001V110.175Z" fill="white"/>
<path d="M133.827 139.019C133.595 139.019 133.305 138.961 132.958 138.845C132.61 138.845 132.263 138.845 131.915 138.845C131.336 138.845 130.525 138.845 129.483 138.845C128.44 138.845 127.455 138.788 126.529 138.672C124.559 138.556 122.88 138.035 121.49 137.108C120.1 136.065 119.115 134.849 118.536 133.459L89.3437 43.7977C88.7645 41.3651 89.0541 39.222 90.2125 37.3685C91.4867 35.3993 93.456 33.9512 96.1204 33.0245C96.9313 32.7928 97.7422 32.6191 98.5531 32.5032C99.3639 32.3874 100.059 32.3295 100.638 32.3295C104.229 32.3295 106.72 34.2988 108.11 38.2374L120.795 77.6813L134.174 119.037L160.238 38.2374C161.513 34.1829 163.83 32.1557 167.189 32.1557C168.463 32.1557 170.085 32.4453 172.054 33.0245C175.066 33.8354 177.151 35.2255 178.31 37.1948C179.468 39.0483 179.642 41.2492 178.831 43.7977L149.813 133.459C148.77 136.702 146.048 138.44 141.646 138.672C141.414 138.672 141.125 138.672 140.777 138.672C140.545 138.788 140.314 138.845 140.082 138.845C139.155 138.961 138.344 139.019 137.649 139.019C136.954 139.019 136.317 139.019 135.738 139.019H133.827Z" fill="white"/>
<path d="M10.947 138.15C6.66087 138.15 3.76484 137.05 2.25891 134.849C0.752968 132.648 0 130.215 0 127.551V10.4354C0 7.771 0.752968 5.39626 2.25891 3.31112C3.76484 1.11013 6.66087 0.00964355 10.947 0.00964355H71.4161C75.7023 0.00964355 77.9612 2.90567 78.1929 8.69773C78.4245 14.6056 76.1656 17.5596 71.4161 17.5596H20.5039V120.6H74.5439C78.83 120.6 81.031 123.438 81.1468 129.115C81.3785 135.138 79.1775 138.15 74.5439 138.15H10.947ZM64.987 66.2129C64.987 70.2673 63.5389 73.6846 60.6429 76.4648C57.8627 79.245 54.4454 80.6351 50.391 80.6351C46.4524 80.6351 43.093 79.245 40.3128 76.4648C37.5326 73.6846 36.1425 70.2673 36.1425 66.2129C36.1425 62.1584 37.5326 58.7411 40.3128 55.9609C43.093 53.1808 46.4524 51.7907 50.391 51.7907C54.4454 51.7907 57.8627 53.1808 60.6429 55.9609C63.5389 58.7411 64.987 62.1584 64.987 66.2129Z" fill="white"/>
</svg>
